<?xml version="1.0" encoding="utf-8"?>
<!-- Generator: Adobe Illustrator 16.0.0, SVG Export Plug-In . SVG Version: 6.00 Build 0)  -->
<!DOCTYPE svg PUBLIC "-//W3C//DTD SVG 1.1//EN" "http://www.w3.org/Graphics/SVG/1.1/DTD/svg11.dtd">
<svg version="1.1" id="Layer_1" xmlns="http://www.w3.org/2000/svg" xmlns:xlink="http://www.w3.org/1999/xlink" x="0px" y="0px"
	 width="22px" height="23px" viewBox="0 0 22 23" enable-background="new 0 0 22 23" xml:space="preserve">
<g>
	<defs>
		<rect id="SVGID_1_" width="22" height="23"/>
	</defs>
	<clipPath id="SVGID_2_">
		<use xlink:href="#SVGID_1_"  overflow="visible"/>
	</clipPath>
	<path clip-path="url(#SVGID_2_)" d="M14.8047,6.8105c0.3994,0,0.8525,0,0.8525-0.4795s-0.4531-0.4795-0.8525-0.4795H1.917
		c-0.3994,0-0.8521,0-0.8521,0.4795S1.5176,6.8105,1.917,6.8105H14.8047"/>
	<path clip-path="url(#SVGID_2_)" fill="#93278F" d="M18.9854,6.8105c-1.3047,1.0117-1.9707,1.9971-2.1562,2.29
		c-1.0664,1.6504-1.252,3.1416-1.252,3.168c0,0.293,0.293,0.293,0.4785,0.293c0.4004,0,0.4268-0.0527,0.5059-0.4785
		c0.5605-2.3438,1.9707-4.3408,4.6602-5.4326c0.293-0.1064,0.3467-0.1328,0.3467-0.3193c0-0.1602-0.1338-0.2393-0.1865-0.2666
		c-1.0391-0.3994-3.9141-1.5977-4.8203-5.5918c-0.0791-0.293-0.1055-0.3457-0.5059-0.3457c-0.1855,0-0.4785,0-0.4785,0.2666
		c0,0.0527,0.2129,1.5703,1.2246,3.168c0.4531,0.6924,1.1445,1.5449,2.1836,2.29H1.2778c-0.4258,0-0.8784,0-0.8784,0.4795
		s0.4526,0.4795,0.8784,0.4795H18.9854"/>
	<path clip-path="url(#SVGID_2_)" fill="#93278F" d="M12.0361,19.751c-0.1074,0.4531-0.1074,0.4795-0.48,0.9053
		c-1.0386,1.3047-2.0234,1.6777-2.6895,1.6777c-1.1982,0-1.5176-1.3047-1.5176-2.2363c0-1.1982,0.7725-4.1279,1.3047-5.2188
		c0.7456-1.4121,1.8105-2.29,2.7695-2.29c1.5444,0,1.8901,1.9434,1.8901,2.1035c0,0.1328-0.0527,0.2656-0.0801,0.3994
		L12.0361,19.751 M13.5801,13.6006c-0.4268-0.9053-1.1182-1.5449-2.1836-1.5449c-2.7959,0-5.7515,3.5156-5.7515,7.0029
		c0,2.2373,1.3315,3.8086,3.1685,3.8086c0.4795,0,1.6777-0.1074,3.1152-1.7842c0.1865,0.9854,1.0117,1.7842,2.1572,1.7842
		c0.8525,0,1.3848-0.5596,1.7842-1.3057c0.3994-0.8779,0.6914-2.3164,0.6914-2.3691c0-0.2402-0.2129-0.2402-0.2656-0.2402
		c-0.2402,0-0.2656,0.1064-0.3457,0.4268c-0.4004,1.5439-0.8262,2.9551-1.8105,2.9551c-0.6396,0-0.7188-0.6123-0.7188-1.0918
		c0-0.5322,0.0527-0.7188,0.3184-1.7568c0.2666-1.0117,0.293-1.252,0.5332-2.1572L15.124,14
		c0.1602-0.666,0.1602-0.7188,0.1602-0.8262c0-0.3994-0.293-0.6387-0.6924-0.6387C14.0322,12.5352,13.6592,13.0674,13.5801,13.6006z
		"/>
</g>
</svg>
