<?xml version="1.0" encoding="utf-8"?>
<!-- Generator: Adobe Illustrator 16.0.0, SVG Export Plug-In . SVG Version: 6.00 Build 0)  -->
<!DOCTYPE svg PUBLIC "-//W3C//DTD SVG 1.1//EN" "http://www.w3.org/Graphics/SVG/1.1/DTD/svg11.dtd">
<svg version="1.1" id="Layer_1" xmlns="http://www.w3.org/2000/svg" xmlns:xlink="http://www.w3.org/1999/xlink" x="0px" y="0px"
	 width="22px" height="23px" viewBox="0 0 22 23" enable-background="new 0 0 22 23" xml:space="preserve">
<g>
	<path fill="#009245" d="M14.8047,6.8105c0.3994,0,0.8521,0,0.8521-0.4795s-0.4526-0.4795-0.8521-0.4795H1.917
		c-0.3994,0-0.8521,0-0.8521,0.4795S1.5176,6.8105,1.917,6.8105H14.8047"/>
	<path fill="#009245" d="M18.9854,6.8105c-1.3047,1.0117-1.9707,1.9971-2.1567,2.29c-1.0654,1.6504-1.2515,3.1416-1.2515,3.168
		c0,0.293,0.293,0.293,0.479,0.293c0.3994,0,0.4263-0.0527,0.5059-0.4785c0.5596-2.3438,1.9707-4.3408,4.6602-5.4326
		c0.293-0.1064,0.3462-0.1328,0.3462-0.3193c0-0.1602-0.1333-0.2393-0.1865-0.2666c-1.0386-0.3994-3.9141-1.5977-4.8198-5.5918
		c-0.0796-0.293-0.1064-0.3457-0.5059-0.3457c-0.186,0-0.479,0-0.479,0.2666c0,0.0527,0.2129,1.5703,1.2246,3.168
		c0.4526,0.6924,1.145,1.5449,2.1836,2.29H1.2778c-0.4258,0-0.8784,0-0.8784,0.4795s0.4526,0.4795,0.8784,0.4795H18.9854"/>
	<path fill="#009245" d="M13.9497,13.7334c0-1.2783-0.6123-1.6777-1.0386-1.6777c-0.5854,0-1.1714,0.6396-1.1714,1.1455
		c0,0.3193,0.1064,0.4521,0.3726,0.7188c0.5063,0.4795,0.8257,1.0918,0.8257,1.9434c0,1.0127-1.4644,6.4707-4.2603,6.4707
		c-1.1982,0-1.7578-0.8252-1.7578-2.0771c0-1.3311,0.6392-3.0615,1.3848-5.0586c0.1597-0.3994,0.293-0.7188,0.293-1.1719
		c0-1.0918-0.772-1.9707-1.9702-1.9707c-2.2368,0-3.1421,3.4619-3.1421,3.6748c0,0.2393,0.2393,0.2393,0.293,0.2393
		c0.2393,0,0.2661-0.0527,0.3726-0.4258c0.6924-2.3965,1.731-2.9551,2.4229-2.9551c0.1865,0,0.5859,0,0.5859,0.7715
		c0,0.5859-0.2397,1.2256-0.3994,1.6514c-1.0649,2.7695-1.3579,3.8613-1.3579,4.8994c0,2.583,2.1035,2.9561,3.1953,2.9561
		C12.5918,22.8672,13.9497,14.958,13.9497,13.7334"/>
</g>
</svg>
