<?xml version="1.0" encoding="utf-8"?>
<!-- Generator: Adobe Illustrator 16.0.0, SVG Export Plug-In . SVG Version: 6.00 Build 0)  -->
<!DOCTYPE svg PUBLIC "-//W3C//DTD SVG 1.1//EN" "http://www.w3.org/Graphics/SVG/1.1/DTD/svg11.dtd">
<svg version="1.1" id="Layer_1" xmlns="http://www.w3.org/2000/svg" xmlns:xlink="http://www.w3.org/1999/xlink" x="0px" y="0px"
	 width="169.7495px" height="24.1841px" viewBox="0 0 169.7495 24.1841" enable-background="new 0 0 169.7495 24.1841"
	 xml:space="preserve">
<g>
	<path fill="#FF0000" d="M11.8828,6.1323l3.8843,9.4829H7.998L11.8828,6.1323 M14.7769,0.876C14.396,0,13.9771,0,13.4058,0
		c-0.9517,0-1.104,0.2671-1.3325,0.876L3.6177,21.4038c-0.1899,0.5332-0.3047,0.7998-2.894,0.7998H0v1.5996
		c1.2949-0.0381,2.9326-0.1143,3.999-0.1143c1.3325,0,3.2368,0,4.4937,0.1143v-1.5996c-0.0762,0-3.0464,0-3.0464-0.4561
		c0-0.0381,0.1138-0.3818,0.1519-0.4199l1.7139-4.1133h9.1411l2.0566,4.9893h-3.2754v1.5996
		c1.2949-0.1143,4.5317-0.1143,6.0176-0.1143c1.3706,0,4.3794,0,5.5605,0.1143v-1.5996H23.499L14.7769,0.876z"/>
	<path d="M49.207,14.3203L42.3896,7.54c-0.4189-0.4189-0.4951-0.4946-0.7617-0.4946c-0.3433,0-0.6851,0.3047-0.6851,0.686
		c0,0.2275,0.0757,0.3047,0.4565,0.686l6.8169,6.8555l-6.8169,6.8545c-0.3809,0.3809-0.4565,0.458-0.4565,0.6855
		c0,0.3809,0.3418,0.6855,0.6851,0.6855c0.2666,0,0.3428-0.0752,0.7617-0.4941l6.7798-6.7803l7.0454,7.0459
		c0.0762,0.0391,0.3052,0.2285,0.5337,0.2285c0.4189,0,0.6851-0.3047,0.6851-0.6855c0-0.0752,0-0.1904-0.1138-0.3799
		c-0.0386-0.0771-5.4463-5.4087-7.1602-7.1602l6.2456-6.2466c0.1523-0.1914,0.686-0.6479,0.8384-0.8384
		c0.0376-0.0767,0.1899-0.229,0.1899-0.4565c0-0.3813-0.2661-0.686-0.6851-0.686c-0.2671,0-0.4194,0.1523-0.7998,0.5337
		L49.207,14.3203"/>
	<path fill="#009245" d="M85.8843,22.2036h-6.2842v-9.9785h6.6265c0.686,0,2.2852,0,3.4277,1.4863
		c1.1426,1.4077,1.1426,3.3506,1.1426,3.7324C90.7969,17.8237,90.7969,22.2036,85.8843,22.2036 M88.8179,11.5781
		c3.6929-0.6479,5.9028-2.6665,5.9028-5.2939c0-3.1621-2.9712-5.8652-8.4565-5.8652H71.4497v1.5996h3.6938v20.1851h-3.6938v1.5996
		h15.8428c5.6377,0,8.4941-3.0088,8.4941-6.3594C95.7866,14.168,92.8545,11.8828,88.8179,11.5781z M79.6001,11.0068V2.0186h6.209
		c3.4639,0,4.0742,2.7041,4.0742,4.2656c0,2.6274-1.6382,4.7227-4.9517,4.7227H79.6001z"/>
	<path d="M131.0542,19.271c0.4951,0,1.1426,0,1.1426-0.6846c0-0.6865-0.6475-0.6865-1.1797-0.6865h-20.3394
		c-0.5317,0-1.1787,0-1.1787,0.6865c0,0.6846,0.647,0.6846,1.1411,0.6846H131.0542 M131.0171,12.644c0.5322,0,1.1797,0,1.1797-0.686
		c0-0.6841-0.6475-0.6841-1.1426-0.6841h-20.4141c-0.4941,0-1.1411,0-1.1411,0.6841c0,0.686,0.647,0.686,1.1787,0.686H131.0171z"/>
	<path fill="#0000FF" d="M169.7495,0.9902c0-0.6479,0-0.9526-0.6094-0.9526c-0.3047,0-0.3799,0.0757-0.6484,0.3047l-2.2461,2.0186
		c-2.0947-1.7139-4.3799-2.3232-6.7012-2.3232c-8.4941,0-13.7129,5.0649-13.7129,12.0728c0,6.9702,5.2188,12.0737,13.7129,12.0737
		c6.3584,0,10.2051-4.1885,10.2051-8.1123c0-0.6855-0.2275-0.7236-0.7988-0.7236c-0.459,0-0.7617,0-0.7998,0.5713
		c-0.2285,4.5703-4.3408,6.666-7.8076,6.666c-2.665,0-5.5234-0.8379-7.2744-2.8955c-1.6016-1.9424-2.0186-4.5317-2.0186-7.5796
		c0-1.9038,0.1133-5.5981,2.2471-7.8457c2.209-2.2461,5.1797-2.6274,6.9707-2.6274c3.6553,0,6.8916,2.5898,7.6543,6.9321
		c0.1143,0.647,0.1533,0.7236,0.9131,0.7236c0.9141,0,0.9141-0.0767,0.9141-0.9902V0.9902"/>
</g>
</svg>
